# xmcd
#
# Track frame offsets: 
#        150
#        10977
#        23266
#        35136
#        44712
#        58640
#        69313
#        81531
#        91086
#        103238
#        113786
#        123406
#        135075
#        146361
#        159258
#        171063
#        182065
#        193167
#        208318
#        218491
#        232184
#        241220
#        252059
#        262704
#        271707
#
# Disc length: 3781 seconds
#
# Revision: 0
# Processed by: cddbd v1.5.2PL0 Copyright (c) Steve Scherf et al.
# Submitted via: ExactAudioCopy v0.95b4
#
DISCID=540ec319
DTITLE=Various Artist - Citrus Soul
DYEAR=1900
DGENRE=
TTITLE0=Sheila Ferguson - Heartbroken Memories
TTITLE1=M M and the Peanuts - The Phillie
TTITLE2=The Showmen - Our Love Will Grow
TTITLE3=John and the Weirdest - Can't Get Over These Memories
TTITLE4=Little Charles - I Guess I'll Have to Take What's Left
TTITLE5=The Spandells - Say No Girl
TTITLE6=Monitors - Don't Put Off Till Tomorrow
TTITLE7=Little Frankie Lee - I got To Come Back
TTITLE8=Bettye Lavette - Only Yor Love Can Save Me
TTITLE9=Mamie Galore - It Aint Necessary
TTITLE10=The Channels - You Can Count On Me
TTITLE11=The Volcanoes - It's Against The Laws Of Love
TTITLE12=The Artistics - This Heart Of Mine
TTITLE13=Voltaires - My My My Baby
TTITLE14=THe Rivingtons - You're Gonna Pay
TTITLE15=Connie McGill and the Visions - I can't Stop My Love
TTITLE16=Incredibes - There's Nothing Else To Say
TTITLE17=Invincibles - Woman is the Soul of a Man
TTITLE18=Bernard Williams - Focused on You
TTITLE19=Originals - Suspician
TTITLE20=Lee Andrews and the Hearts - As Quiet as it's Kept
TTITLE21=Gene McDaniels - Hang On
TTITLE22=Kissi Jacobs - Let it be Him
TTITLE23=Geno Washington - I'll be Around
TTITLE24=Debonaires - How's Your New Love Treating You?
EXTD=
EXTT0=
EXTT1=
EXTT2=
EXTT3=
EXTT4=
EXTT5=
EXTT6=
EXTT7=
EXTT8=
EXTT9=
EXTT10=
EXTT11=
EXTT12=
EXTT13=
EXTT14=
EXTT15=
EXTT16=
EXTT17=
EXTT18=
EXTT19=
EXTT20=
EXTT21=
EXTT22=
EXTT23=
EXTT24=
PLAYORDER=
